<?xml version="1.0" encoding="UTF-8"?>
<svg width="109px" height="28px" viewBox="0 0 109 28" version="1.1" xmlns="http://www.w3.org/2000/svg" xmlns:xlink="http://www.w3.org/1999/xlink">
    <title>Group 3</title>
    <defs>
        <polygon id="path-1" points="7.2576e-05 0 108.864 0 108.864 27.0344485 7.2576e-05 27.0344485"></polygon>
    </defs>
    <g id="Home-&amp;-Menu" stroke="none" stroke-width="1" fill="none" fill-rule="evenodd">
        <g id="Menu" transform="translate(-39.000000, -34.000000)">
            <g id="Group-3" transform="translate(39.000000, 34.000000)">
                <mask id="mask-2" fill="white">
                    <use xlink:href="#path-1"></use>
                </mask>
                <g id="Clip-2"></g>
                <path d="M89.0386681,6.06619238 C86.955374,6.06619238 84.9626185,8.21934086 84.4357167,11.9726087 L84.3622335,11.9726087 L83.5589987,6.29553254 L79.3680975,6.29553254 L79.3680975,26.7986154 L84.6750361,26.7986154 L84.6750361,15.5997757 C84.6750361,11.5658202 85.8545775,9.17770694 86.8372566,9.17770694 C87.6234361,9.17770694 87.8594895,9.68573894 87.8594895,11.5306209 L87.8594895,26.7986154 L93.2058006,26.7986154 L93.2058006,13.0926378 C93.2058006,7.5971831 91.3188246,6.06619238 89.0386681,6.06619238 L89.0386681,6.06619238 Z M103.674889,20.0274561 C103.699383,20.0561236 102.751178,24.6095418 101.591413,24.6095418 C100.529989,24.6095418 99.7008083,22.929226 99.7008083,20.4474897 C99.7008083,17.8383825 100.773844,15.8849994 101.866476,15.6422327 C102.568286,15.4863757 103.207136,15.7873847 103.674889,16.0894823 L103.674889,20.0274561 Z M102.33822,6.06619238 C95.5717782,6.06619238 95.0104028,11.4956029 96.1344236,13.21765 L101.720235,13.21765 C100.946212,11.8113085 100.325143,6.85817798 102.220284,6.85817798 C103.360453,6.85817798 103.675251,8.1297095 103.675251,10.5116538 L103.674889,15.1178711 C102.652656,14.6809636 101.984594,14.4429143 100.56918,14.4826497 C97.4636531,14.5619389 94.6295603,16.7851233 94.6295603,20.5964519 C94.6295603,24.3281284 96.7166646,27.0277741 99.4683836,27.0277741 C101.512668,27.0277741 103.413978,25.0743911 103.888262,22.0750065 L104.006017,22.0750065 L104.67426,26.7986154 L108.864073,26.7986154 L108.864073,13.0931821 C108.864073,7.81291526 105.954864,6.06619238 102.33822,6.06619238 L102.33822,6.06619238 Z M72.2774223,16.8767505 L68.2585263,16.8767505 C68.2975359,12.0852829 68.8826799,6.94545062 70.3655891,6.94545062 C71.7701161,6.94545062 72.3164319,12.0852829 72.2774223,16.8767505 L72.2774223,16.8767505 Z M70.4436083,6.06981312 C65.9172246,6.06981312 62.7177116,10.7417197 62.7177116,16.3133793 C62.7177116,22.7419799 65.9611331,27.2317127 70.3655891,27.0277741 C75.3199897,26.7986154 77.3181884,22.4083117 77.5858124,18.795297 L76.8832767,18.795297 C76.8832767,18.795297 76.2897865,24.0220391 72.2794182,24.0220391 C68.2585263,24.0220391 68.2585263,17.6769009 68.2585263,17.6769009 L77.7012083,17.6769009 C77.7532815,7.28274758 72.0840073,6.06619238 70.4436083,6.06981312 L70.4436083,6.06981312 Z M30.8207411,26.23597 C29.1696371,26.23597 28.7370841,22.2540877 28.7370841,16.3877697 C28.7370841,10.0186813 29.4055091,6.85817798 30.8207411,6.85817798 C32.2751641,6.85817798 32.8256531,10.5773351 32.8256531,16.3318861 C32.8256531,22.5333239 32.3931001,26.23597 30.8207411,26.23597 L30.8207411,26.23597 Z M30.8207411,6.06619238 C25.7101206,6.06619238 23.0369651,11.5618285 23.0369651,16.429138 C23.0369651,22.3172289 25.9853651,27.0277741 30.8207411,27.0277741 C35.8526166,27.0277741 38.4863996,21.8463921 38.4863996,16.3899469 C38.4863996,11.7973377 36.0491161,6.06619238 30.8207411,6.06619238 L30.8207411,6.06619238 Z M56.9217923,6.06619238 C55.244198,6.06619238 53.6261161,7.46309894 52.7840531,9.96660806 C52.1856639,6.98863334 50.6543103,6.06619238 48.8856332,6.06619238 C46.8021577,6.06619238 45.3373926,8.21934086 44.8103094,11.9726087 L44.7370076,11.9726087 L43.9335913,6.29553254 L40.0964982,6.29553254 L40.0964982,26.7986154 L45.2856822,26.7986154 L45.2856822,15.5997757 C45.2856822,11.5658202 46.0718617,9.17770694 47.0547222,9.17770694 C47.8409017,9.17770694 48.0767737,9.68573894 48.0767737,11.5306209 L48.0767737,26.7986154 L53.0692767,26.7986154 L53.0692767,15.5997757 C53.0692767,11.5658202 53.7377017,9.17770694 54.7203807,9.17770694 C55.5065603,9.17770694 55.8605497,9.68573894 55.8605497,11.5306209 L55.8605497,26.7986154 L61.0889247,26.7986154 L61.0889247,13.0926378 C61.0889247,7.5971831 59.2021302,6.06619238 56.9217923,6.06619238 L56.9217923,6.06619238 Z M17.6572691,-7.25760001e-05 L15.1568444,17.1291335 L14.512551,17.1291335 L12.6620444,5.3427911 L11.5481843,5.3427911 L9.50063386,17.1291335 L8.83329754,17.1291335 L6.26610298,-7.25760001e-05 L7.25760001e-05,-7.25760001e-05 L4.1918809,26.7986154 L8.7659833,26.7986154 L12.0692799,7.09749734 L15.1118473,26.7986154 L19.5193878,26.7986154 L23.4834889,-7.25760001e-05 L17.6572691,-7.25760001e-05 Z" id="Fill-1" fill="#FFFFFF" mask="url(#mask-2)"></path>
            </g>
        </g>
    </g>
</svg>